<svg width="16" height="12" viewBox="0 0 16 12" fill="#FFFFFF" xmlns="http://www.w3.org/2000/svg">
<path d="M13.5435 0.99501C12.5248 0.535651 11.4311 0.195038 10.2874 0.00129429C10.278 0.00129429 10.2686 0.00129431 10.2592 0.00754369C10.2467 0.0106692 10.2405 0.0169185 10.2342 0.0262934C10.0967 0.27316 9.94049 0.591899 9.83112 0.84814C8.61866 0.666896 7.38433 0.666896 6.17187 0.84814C6.05 0.566899 5.9125 0.291909 5.75939 0.0262934C5.75626 0.0169185 5.74689 0.0106692 5.73751 0.00441899C5.72814 0.0012943 5.71876 -0.0018304 5.70939 0.00129429C4.56568 0.195038 3.47196 0.535651 2.45012 0.99501C2.44387 0.998135 2.4345 1.00438 2.43137 1.01376C0.356446 4.06365 -0.212283 7.03855 0.065832 9.97595C0.065832 9.9822 0.0689569 9.98845 0.0720818 9.9947C0.0752067 10.0009 0.0814561 10.0072 0.0877062 10.0103C1.29704 10.8947 2.64699 11.5634 4.08132 11.9978C4.09069 12.0009 4.10319 12.0009 4.11257 11.9978C4.12194 11.9946 4.13132 11.9884 4.13757 11.9821C4.44693 11.5665 4.72192 11.1322 4.95629 10.6728C4.96879 10.6447 4.95629 10.6134 4.92816 10.6041C4.49693 10.4416 4.08132 10.2447 3.68133 10.0166C3.67196 10.0134 3.66571 10.0072 3.66258 10.0009C3.65946 9.9947 3.65633 9.98532 3.65633 9.97595C3.65321 9.9697 3.65633 9.96032 3.65946 9.95407C3.66258 9.9447 3.66883 9.93845 3.67508 9.93532C3.75945 9.87283 3.84383 9.8072 3.92195 9.74158C3.93132 9.73846 3.93757 9.73221 3.94695 9.73221C3.95632 9.73221 3.9657 9.73221 3.97507 9.73533C6.59373 10.9134 9.42801 10.9134 12.0154 9.73533C12.0248 9.73221 12.0342 9.73221 12.0435 9.73221C12.0529 9.73221 12.0592 9.73533 12.0685 9.74158C12.1467 9.8072 12.231 9.87283 12.3154 9.93532C12.3217 9.93845 12.3279 9.9447 12.331 9.95407C12.3342 9.96032 12.3373 9.9697 12.3373 9.97595C12.3373 9.98532 12.3342 9.9947 12.3279 10.0009C12.3248 10.0072 12.3185 10.0134 12.3123 10.0166C11.9123 10.2478 11.4998 10.4416 11.0623 10.6009C11.0561 10.6041 11.0498 10.6072 11.0467 10.6134C11.0405 10.6197 11.0373 10.6259 11.0342 10.6322C11.0311 10.6384 11.0311 10.6447 11.0311 10.6509C11.0311 10.6603 11.0311 10.6665 11.0373 10.6728C11.2748 11.129 11.5498 11.5665 11.8529 11.979C11.8592 11.9884 11.8685 11.9946 11.8779 11.9978C11.8873 12.0009 11.8998 12.0009 11.9092 11.9978C13.3435 11.5665 14.6966 10.8947 15.909 10.0103C15.9153 10.0072 15.9215 10.0009 15.9247 9.9947C15.9278 9.98845 15.9309 9.9822 15.9309 9.97595C16.2653 6.57919 15.3716 3.62929 13.5654 1.01376C13.5591 1.00751 13.5529 0.998135 13.5435 0.99501ZM5.3469 8.18539C4.55943 8.18539 3.90945 7.47291 3.90945 6.60107C3.90945 5.7261 4.54693 5.01362 5.3469 5.01362C6.15312 5.01362 6.79685 5.73235 6.78435 6.60107C6.78435 7.47291 6.14687 8.18539 5.3469 8.18539ZM10.6623 8.18539C9.87487 8.18539 9.22489 7.47291 9.22489 6.60107C9.22489 5.7261 9.86237 5.01362 10.6623 5.01362C11.4686 5.01362 12.1123 5.73235 12.0998 6.60107C12.0998 7.47291 11.4717 8.18539 10.6623 8.18539Z" fill="inherit"/>
</svg>
