<svg width="100" height="18" viewBox="0 0 100 18" fill="none" xmlns="http://www.w3.org/2000/svg">
<path d="M16.779 12.0638C16.9791 12.5892 16.9791 13.1699 16.779 13.6954L15.5191 16.5302C15.3191 16.979 14.9915 16.979 14.7915 16.5302L7.42725 0H0L7.58789 17.042C7.7073 17.277 7.88674 17.4763 8.10801 17.6196C8.32928 17.7628 8.58451 17.845 8.84781 17.8578H17.9476C18.2108 17.8447 18.4659 17.7624 18.6871 17.6192C18.9084 17.4759 19.0879 17.2768 19.2075 17.042L26.786 0H19.3571L15.3821 8.92813L16.779 12.0638Z" fill="black"/>
<path d="M86.0912 10.4904L76.5662 3.57188V17.8578H92.9294C93.2029 17.8421 93.4701 17.7698 93.7141 17.6453C93.9581 17.5209 94.1736 17.3471 94.3468 17.135L99.7834 9.65101C99.9251 9.43684 100.001 9.18571 100.001 8.92892C100.001 8.67212 99.9251 8.421 99.7834 8.20682L94.3468 0.722881C94.1738 0.510462 93.9584 0.336462 93.7143 0.211993C93.4703 0.0875237 93.2029 0.0153224 92.9294 0L73.125 0L76.5662 2.49937H86.3573C86.6308 2.51508 86.898 2.58744 87.142 2.71189C87.386 2.83633 87.6015 3.01012 87.7748 3.22225L91.397 8.20682C91.5381 8.42122 91.6133 8.67226 91.6133 8.92892C91.6133 9.18558 91.5381 9.43661 91.397 9.65101L87.7748 14.6356C87.6014 14.8475 87.3859 15.021 87.1419 15.1452C86.8979 15.2694 86.6307 15.3415 86.3573 15.3569H80.2861C79.7947 15.3569 79.7175 15.1207 80.116 14.8324L86.0912 10.4904Z" fill="black"/>
<path d="M35.9619 14.7568L36.7855 15.3569V17.8578H28.3047V0H35.0894V12.815C35.0894 13.4355 35.1366 14.1568 35.9619 14.7568Z" fill="black"/>
<path d="M53.3876 12.0638C53.5893 12.5911 53.5893 13.1743 53.3876 13.7017L52.1277 16.5365C51.9277 16.9853 51.6001 16.9853 51.4001 16.5365L44.0343 0H36.6055L44.1934 17.042C44.3129 17.2769 44.4924 17.4761 44.7136 17.6194C44.9349 17.7626 45.19 17.8449 45.4533 17.8578H54.5531C54.8163 17.8449 55.0715 17.7626 55.2927 17.6194C55.514 17.4761 55.6935 17.2769 55.813 17.042L63.3914 0H55.9642L51.9876 8.92813L53.3876 12.0638Z" fill="black"/>
<path d="M72.5673 14.7568L73.3894 15.3569V17.8578H64.9102V0H71.6948V12.815C71.6948 13.4355 71.7421 14.1568 72.5673 14.7568Z" fill="black"/>
</svg>
