<svg width="1130" height="304" viewBox="0 0 1130 304" fill="none" xmlns="http://www.w3.org/2000/svg">
<path d="M189.603 136.32C191.863 142.258 191.863 148.82 189.603 154.758L175.366 186.791C173.106 191.863 169.404 191.863 167.144 186.791L83.9278 0H0L85.7431 192.575C87.0924 195.23 89.1201 197.482 91.6205 199.101C94.1208 200.72 97.005 201.649 99.9802 201.793H202.808C205.782 201.645 208.665 200.715 211.165 199.096C213.664 197.478 215.693 195.228 217.045 192.575L302.681 0H218.736L173.817 100.888L189.603 136.32Z" fill="#E60013"/>
<path d="M972.822 118.542L865.19 40.3622V201.793H1050.09C1053.18 201.616 1056.2 200.798 1058.96 199.392C1061.72 197.986 1064.15 196.022 1066.11 193.625L1127.54 109.056C1129.15 106.636 1130 103.799 1130 100.897C1130 97.9949 1129.15 95.1572 1127.54 92.7371L1066.11 8.16855C1064.16 5.76822 1061.72 3.80201 1058.96 2.39552C1056.21 0.989018 1053.19 0.173142 1050.09 0L826.305 0L865.19 28.2429H975.83C978.92 28.4203 981.939 29.2381 984.697 30.6443C987.454 32.0505 989.889 34.0144 991.847 36.4114L1032.78 92.7371C1034.37 95.1597 1035.22 97.9964 1035.22 100.897C1035.22 103.797 1034.37 106.634 1032.78 109.056L991.847 165.382C989.888 167.777 987.452 169.738 984.695 171.141C981.938 172.544 978.919 173.359 975.83 173.533H907.225C901.672 173.533 900.8 170.863 905.303 167.607L972.822 118.542Z" fill="#E60013"/>
<path d="M406.37 166.752L415.677 173.533V201.793H319.844V0H396.511V144.809C396.511 151.821 397.045 159.972 406.37 166.752Z" fill="#E60013"/>
<path d="M603.299 136.32C605.577 142.279 605.577 148.87 603.299 154.829L589.061 186.862C586.801 191.934 583.1 191.934 580.84 186.862L497.606 0H413.66L499.403 192.575C500.754 195.229 502.782 197.48 505.282 199.099C507.782 200.717 510.666 201.647 513.64 201.793H616.468C619.443 201.647 622.326 200.717 624.826 199.099C627.326 197.48 629.354 195.229 630.705 192.575L716.341 0H632.413L587.478 100.888L603.299 136.32Z" fill="#E60013"/>
<path d="M820.026 166.752L829.316 173.533V201.793H733.5V0H810.167V144.809C810.167 151.821 810.701 159.972 820.026 166.752Z" fill="#E60013"/>
<path d="M369.779 287.855L368.676 288.051C359.772 289.642 350.741 290.411 341.696 290.347C331.855 290.347 331.108 288.282 331.108 285.364V275.327C343.222 272.851 355.006 268.969 366.22 263.759L356.823 242.652H349.1L355.524 257.103C347.694 260.753 339.513 263.598 331.108 265.592V244.236H319.789V286.698C319.789 296.451 325.929 300.259 341.696 300.259C351.225 300.328 360.745 299.662 370.171 298.266L371.221 298.106L369.779 287.855Z" fill="white"/>
<path d="M376.322 257.37L369.755 242.652H362.031L368.58 257.37H376.322Z" fill="white"/>
<path d="M632.599 276.836L623.932 257.367H614.055L622.722 276.836H632.599Z" fill="white"/>
<path d="M649.356 276.836L640.69 257.367H630.812L639.479 276.836H649.356Z" fill="white"/>
<path d="M661.151 257.367C658.072 276 649.032 287.497 631.876 294.615L630.523 295.185L637.179 303.175L637.909 302.873C656.916 295.042 668.056 280.645 671.989 258.844L672.256 257.367H661.151Z" fill="white"/>
<path d="M523.452 287.855L522.367 288.051C513.475 289.638 504.456 290.407 495.423 290.347C485.582 290.347 484.834 288.282 484.834 285.364V275.327C496.949 272.851 508.733 268.969 519.946 263.759L510.55 242.652H502.826L509.251 257.103C501.421 260.753 493.24 263.598 484.834 265.592V244.236H473.516V286.698C473.516 296.451 479.655 300.259 495.423 300.259C504.952 300.328 514.471 299.662 523.897 298.266L524.947 298.106L523.452 287.855Z" fill="white"/>
<path d="M529.994 257.37L523.427 242.652H515.703L522.252 257.37H529.994Z" fill="white"/>
<path d="M805.611 274.153C796.228 269.194 786.358 265.216 776.158 262.283V242.707H764.555V301.72H776.158V272.765C784.541 275.666 792.676 279.237 800.486 283.443L801.429 283.941L806.572 274.687L805.611 274.153Z" fill="white"/>
<path d="M799.06 257.37L792.493 242.652H784.77L791.319 257.37H799.06Z" fill="white"/>
<path d="M811.951 257.37L805.402 242.652H797.66L804.209 257.37H811.951Z" fill="white"/>
</svg>
