<svg width="140" height="25" viewBox="0 0 140 25" fill="none" xmlns="http://www.w3.org/2000/svg">
<path d="M23.4906 16.8893C23.7707 17.6249 23.7707 18.4379 23.4906 19.1735L21.7268 23.1423C21.4467 23.7707 20.9881 23.7707 20.7081 23.1423L10.3981 0H0L10.623 23.8589C10.7902 24.1879 11.0414 24.4668 11.3512 24.6674C11.661 24.868 12.0183 24.9831 12.3869 25.001H25.1267C25.4952 24.9826 25.8523 24.8674 26.162 24.6668C26.4717 24.4663 26.723 24.1876 26.8905 23.8589L37.5004 0H27.1L21.5349 12.4994L23.4906 16.8893Z" fill="#E60013"/>
<path d="M120.527 14.6866L107.192 5.00064V25.001H130.1C130.483 24.979 130.857 24.8777 131.199 24.7035C131.54 24.5292 131.842 24.2859 132.085 23.9889L139.696 13.5114C139.894 13.2116 140 12.86 140 12.5005C140 12.141 139.894 11.7894 139.696 11.4896L132.085 1.01203C131.842 0.714647 131.541 0.471046 131.199 0.29679C130.857 0.122533 130.483 0.0214513 130.1 0L102.374 0L107.192 3.49912H120.899C121.282 3.52111 121.656 3.62242 121.998 3.79664C122.339 3.97086 122.641 4.21418 122.884 4.51116L127.955 11.4896C128.152 11.7897 128.258 12.1412 128.258 12.5005C128.258 12.8598 128.152 13.2113 127.955 13.5114L122.884 20.4898C122.641 20.7865 122.339 21.0295 121.998 21.2033C121.656 21.3772 121.282 21.4781 120.899 21.4996H112.4C111.712 21.4996 111.604 21.1689 112.161 20.7654L120.527 14.6866Z" fill="#E60013"/>
<path d="M50.346 20.6596L51.4992 21.4996V25.001H39.626V0H49.1245V17.941C49.1245 18.8097 49.1907 19.8195 50.346 20.6596Z" fill="#E60013"/>
<path d="M74.745 16.8893C75.0273 17.6276 75.0273 18.444 74.745 19.1823L72.9812 23.1511C72.7011 23.7795 72.2425 23.7795 71.9625 23.1511L61.6503 0H51.25L61.873 23.8589C62.0404 24.1877 62.2917 24.4666 62.6014 24.6671C62.9111 24.8677 63.2684 24.9828 63.6369 25.001H76.3766C76.7452 24.9828 77.1024 24.8677 77.4122 24.6671C77.7219 24.4666 77.9732 24.1877 78.1405 23.8589L88.7504 0H78.3522L72.7849 12.4994L74.745 16.8893Z" fill="#E60013"/>
<path d="M101.596 20.6596L102.747 21.4996V25.001H90.876V0H100.375V17.941C100.375 18.8097 100.441 19.8195 101.596 20.6596Z" fill="#E60013"/>
</svg>
