<svg width="16" height="14" viewBox="0 0 16 14" fill="#FFFFFF" xmlns="http://www.w3.org/2000/svg">
<path d="M16 1.54248C15.4121 1.80342 14.7779 1.97848 14.114 2.06106C14.801 1.64818 15.313 1.00408 15.5574 0.244378C14.9133 0.624229 14.2097 0.895079 13.4732 1.04041C12.9777 0.511925 12.3237 0.161802 11.6102 0.0428917C10.8968 -0.0727155 10.1635 0.0461945 9.52601 0.389712C8.88852 0.729927 8.38315 1.27163 8.08588 1.93224C7.7853 2.58955 7.71594 3.32943 7.88109 4.03298C6.57308 3.97022 5.2981 3.63001 4.13212 3.03876C2.96614 2.44752 1.93889 1.61845 1.11313 0.60441C0.83237 1.08996 0.67052 1.65478 0.67052 2.25263C0.67052 2.79434 0.802643 3.32613 1.05698 3.80507C1.31131 4.28071 1.68125 4.68699 2.13047 4.98756C1.60859 4.97105 1.09992 4.82902 0.644096 4.57468V4.61762C0.644096 5.37732 0.905037 6.1106 1.38398 6.69855C1.86623 7.28319 2.53344 7.68616 3.27663 7.8381C2.79439 7.96692 2.28571 7.98674 1.79356 7.89425C2.00495 8.54495 2.41123 9.11638 2.96284 9.52596C3.51115 9.93224 4.17506 10.1601 4.85879 10.1734C3.69612 11.085 2.26259 11.5805 0.782824 11.5772C0.521883 11.5772 0.260942 11.5639 0 11.5309C1.49959 12.4987 3.2469 13.0107 5.03055 13.0074C11.0685 13.0074 14.3716 8.00655 14.3716 3.66634C14.3716 3.52761 14.3683 3.38558 14.3617 3.24355C15.0025 2.77782 15.5574 2.20309 15.9967 1.54578L16 1.54248Z" fill="inherit"/>
</svg>
